<svg width="306" height="250" viewBox="0 0 306 250" fill="none" xmlns="http://www.w3.org/2000/svg">
<path d="M209.5 118L171 129L205.797 153.5M209.5 118L266 153.5M209.5 118L220 103.507M254.5 106.5L245 69L220 103.507M254.5 106.5L220 163.5M254.5 106.5L271 118.38M266 153.5L304.5 142.5L271 118.38M266 153.5L231 203.5L220 163.5M220 163.5L205.797 153.5M205.797 153.5L271 118.38M254.5 168L220 103.507" stroke="black"/>
<path d="M89.5 96.5L94 98M99 60H104.5L122.5 73.5L145 71.5L179.5 88.5L104.5 101.5L94 98M99 60L89.5 48.5L85.5 46.5M99 60L91 65M72 40L24.5 24L48.5 76L66 84.5L76 103.5V48.5M76 48.5L60.5 57.5M76 48.5L82.5 103.5M60.5 57.5L74.5 40L82.5 38.5L89.5 65L92.5 90L82.5 103.5M60.5 57.5L77.5 41.5M82.5 103.5V107.5L94 98M94 91.5L110.5 82.0278M121 76L110.5 82.0278M162.5 84.5L110.5 82.0278M74.5 65L41.5 36.5M67.5 84.5L74.5 76" stroke="black"/>
<path d="M77.5 39.5L82.5 102.5" stroke="black"/>
<path d="M117 69L135.5 0.5L104 59.5" stroke="black"/>
<path d="M70 196.5L55.5 162L8.5 169L53 213.5M113 199L135 164L175.5 175L125.5 216M130 225L94.5 177L53 216M91.5 221.5L165.5 227L177 246.5L91.5 249.5M91.5 221.5L19 210.5L1.5 233L91.5 249.5M91.5 221.5V249.5" stroke="black"/>
<path d="M165.5 227L149 199.5M22 210.5L33 197.5M58.5 165.5L99 118.5M99 118.5L131 169.5M99 118.5L91 221" stroke="black"/>
</svg>
