<svg width="979" height="653" viewBox="0 0 979 653" fill="none" xmlns="http://www.w3.org/2000/svg">
<path d="M48 370.5L24.5 442.5L23.5 444L22.5 444.5H21.5L18 444H15.5L12.5 445.5L10.5 447.5L8.5 450L5.5 454.5L3 462L2.5 467.5L3.5 474L5.5 480.5L9 486.5L13 491.5L18 495.5L24 499.5L32.5 504L41.5 509L56.5 521L69.5 530L84 539L94 545.5L114 557.5L132 568L147.5 576.5L162 583.5L175 588.5L197 595L217.5 601.5L236.5 606L253.5 607.5L277.5 610L299.5 612L317 614L332 615L345.5 615.5H360.5L376.5 615L393 614L414.5 612L425 611.5L435.5 610L444 608.5L458 605L466.5 603L473.5 600L477.5 598.5L478 599L482.5 604L486.5 607.5L490.5 611L495 615L499 619.5L503 624.5L506 627.5L508.5 630.5L514 637L521 643L529.5 648.5L533.5 650.5H537L540 650L555.5 647L570.5 645L579 642.5L598 634L616 626L626.5 621.5L633.5 616.5L643 609L651 603.5L660 596L667.5 589.5L676.5 584L685.5 579.5L694 574L701 569L709 572.5L716.5 576.5L725 580.5L735 584L744 587.5L751.5 589.5L775 593.5L817.5 599.5L846.5 602L867 603H887L909 602L914.5 601L921.5 599.5L926 598L931 595L934.5 592L940 586L946 579.5L952 572.5L955 564.5L959 554L961 547.5L962 541V535.5V527L960.5 516L959 504L958 496.5L956 484.5L953.5 474.5L948.5 457.5L943.5 442.5L940.5 431.5L938 421L936 413.5L934.5 407.5L933 400L930.5 389.5V386L934 376.5L935.5 370.5L938.5 364L942 360L944.5 356L947 351L948.5 345.5L951 338L951.5 333L954.5 324.5L961.5 307L964.5 296L968.5 279L972 266.5L974 258L976 250.5L976.5 246.5V244L976 230L975.5 219L974.5 214L972.5 206L970.5 200.5L969.5 196.5L968 191.5L967 189L965 186.5L963.5 184.5L961 183L957 182.5L942.5 183L929.5 185.5H921L909.5 187L898.5 189L882 194L871.5 196.5L855 200L834.5 205.5L821 210L806 216L793 222L784.5 227.5L771.5 233.5L761 240.5L749 248.5L740 255V251V243L739.5 235.5L738.5 228L736.5 215.5L735 206L733 195L731 186.5L729 177L726 166.5L723 157.5L718 147.5L713 137L708.5 129L706 124L700.5 116.5L691.5 106L682 96L676 89L667 81.5L657 74.5L646 67L639 61.5L631.5 53.5L623 45.5L612.5 38.5L596.5 30L589 26L586 22L574 15L564.5 9L555 4.5L548.5 3L544.5 2.5H538.5L532.5 3L527.5 4L519.5 7.5L510.5 13.5L501.5 19.5L488 28L475.5 38L462.5 50.5L448 65L436.5 74L420.5 85L417 86.5L409 87L401.5 88L391 90.5L380.5 96L370.5 102.5L366.5 107.5L349 110L319.5 116L292.5 125.5L245.5 142L201 172L157 206.5L123.5 239L98 271L71.5 313.5L48 370.5Z" stroke="black" stroke-width="4"/>
<path d="M489.5 593L519 585L554.5 577.5L590 573M590 573L614.5 568L646.5 557.5L669 545L676 538M590 573L621.5 609M712 510.5L718 504L722.5 497.5L730 488M746.5 429L753 406.5V381.5V361.5L746.5 335L730 283L697 240.5L686.449 227.5M467.5 85L559.5 129L580.95 142M548 38.5L511.5 104M621.5 88.5L580.95 142M580.95 142L625.5 169L669 206L686.449 227.5M682 145L645.5 184M722.5 195.5L686.449 227.5M911 269L746.5 330.5M872 390L812 381.5L754.5 383M872 530.5L816.5 504L779.5 488M667.5 578.5L652.5 559.5" stroke="black" stroke-width="4"/>
<path d="M570 624.5L540 582" stroke="black" stroke-width="4"/>
<path d="M608 193L621 198L626.5 207L629.5 218.5L633 235.5V249V266L631 285.5L626.5 301.5L621 314L610.5 322.5L600.5 328.5L615 333.5L621 342L626.5 352L631 367V376L626.5 390L618 405L610.5 417L599 424L588.5 429L573.5 432.5L588.5 437.5H595M556.5 531.5L545.5 534M695 283L706 297.5L715 314L717 333.5L711.5 349L702.5 365L689.5 381L683 390L689.5 398.5L695 407.5L697.5 417V429L689.5 441L672.5 450L668 454.5M253 164.5H266.5L277.5 167L289.5 174.5L300 182.5L307 192.5L312 206.5V221L307 234.5L303 242.5L323 248L331 254.5L340.5 265.5L347 277L351.5 287L347 297L340.5 308.5L334 316M226.5 282L243.5 292L254 302.5L266.5 326L285.5 361.5L296.5 391.5L303 421.5L304.515 435M308.5 470.5V489.5L300.5 512M308.5 470.5L304.515 435M308.5 470.5L336 462.5L362 459L391.5 456.5H421M300.5 512L292 531.5L277 542M300.5 512L343 516L370 519.5L397 516L438 507M403.5 397.5L374 408.5L343 419.5L304.515 435M62.5 449.5L122.5 446L153.5 447.5L174 451.5L190.5 458L194 462.5V470.5L190.5 476L176.5 489.5L160 497.5L130 506L99.5 510.5L72 516M84.5 321L171 248L174.5 245.5L176.5 245H178H180L182 245.5L183 246.5L184 248.5L198.5 275L199.5 276.5L200 279V280.5L199 283L197 285L194.5 286L91.5 328L89 329L86 330.5H84.5L82 330L81.5 329.5L81 327.5V325L81.5 323.5L82 323L83 322L84.5 321Z" stroke="black" stroke-width="4"/>
<path d="M101 326L100.5 332.5L101.5 337.5L103.5 342.5L106.5 346.5L109 349L112 351.5L115.5 353.5L119.5 355.5L124 356.5H127H131L135.5 355.5L139 354L142 352.5L145.5 350L148 348L149.5 345.5L151.5 342.5L153 340L153.5 337V334V330L153 327L152 323.5L151 320.5L149.5 318L147 315L145.5 313L143.5 311.5L141 310L138 308.5" stroke="black" stroke-width="4"/>
<path d="M467 558.5L466 551.5L465.5 543.5L464 536L461 528.5L458 523L457 517V512.5L459.5 508L463 503L465.5 496.5L467 489V470.5L466 461L463.5 450L459.5 442.5V440.5L465.5 433L469 427.5L471 421V415.5L470.5 410.5L465.5 396L460 385L455.5 377L451 371L441 361V359.5L444.5 345.5L448 337L450 330.5L449.5 323.5L448 318L443.5 309.5L438.5 302L433 295.5L423.5 285V283L430.5 273L433.5 264.5L434.5 257.5V252L432 245.5L427.5 237.5L418.5 227.5L410.5 219.5L401 212V210.5L408.5 203.5L411.5 198L413 191L411.5 179L410.5 172L409.5 167L407.5 161.5L405 156L402 152H397L394.5 149.5L394 149M467 558.5L468 562L467.5 567L468 571.5L470 574L476 575L483.5 571L495.5 565L504.5 557.5L509.5 550L515 540L520.5 526L522.5 515V510L526 504.5L536.5 495.5L543 490L545 483.5L548.5 475L549.5 463L548.5 453L547.5 444.5V440.5L545 438V433L547.5 427.5L552 422L556 416.5L560 399.5L560.5 385.5L559.5 381.5L556 372.5L553.5 365.5L553 361L555 355.5L559.5 348.5L564.5 337.5L565.5 327V318.5L562 306L558 289.5V286L559 282L561.5 277.5L568 265L570.5 258.5L572 251.5V244L570.5 236L568 224.5L564 213.5L560.5 210L559 209.5L558 204.5L556.5 191.5L557 187L558 180L559 171V162.5L556.5 155.5L549.5 143L543.5 136.5L537 131L525 121.5L514.5 117.5L504 114L496 111.5L486 106.5L477.5 102L465.5 97L456.5 94.5L445 93L433 95L425 99L418 104.5L415 106.5L407.5 109L401 111.5L396 114L392 117L386 123L382 127L381.5 130V132.5L384 138L389 143.5L390.5 145.5L394 149M467 558.5L474 554.5L480.5 549L488.5 541L493 534.5L497 524L499.5 515L501 504.5L504.5 492L508.5 483.5L515 475L520.5 467.5L525 457L527 447L528.5 439.5L529 431.5V424.5V413.5V408V395.5L527 388.5L526 383.5L524 375L524.5 370L525 366.5L528.5 358L530.5 353L534 339V333.5L534.5 327.5L536 313.5L536.5 306L538 299L540.5 293L541.5 286L542.5 279.5L543.5 272.5V261L541 252.5L536.5 243L535 237.5L534.5 227.5L533.5 220.5L535.5 216L536 209.5L535 200L534.5 190.5V180L533 175.5L528.5 165.5L524 160L519 156.5L514.5 154L510.5 151L507.5 148L502.5 141.5L498.5 133.5L492.5 128.5L487.5 125.5L479.5 122.5L471 120.5L462.5 120L451 120.5L441 122.5L428.5 126.5L421 132L415 137L411.5 139L406.5 142L401.5 145L398.5 146.5L394 149" stroke="black" stroke-width="4"/>
<path d="M483.5 190L486 191.5L489 196L491 199L492.5 203L494 207M483.5 190L481.5 189H478.5L475.5 190L472.5 192L471 194.5L470.5 196L470.05 198.057V201L470.5 204L472 210.5L473.5 217L475.05 222.557L478.5 227L481 229L484 230L487 230.5H489.5L491.5 229.5L492.5 228L493.5 225.5L494 223.5L494.5 221L495 217V214L494.5 210.5L494 207M483.5 190L480.5 192L479 193L478 194.5L477 196.5V199.5L478 202L479 204.5L481 208.5L482.5 210L484 211L485.5 211.5H487.5L489.5 211L491.696 209.75L494 207" stroke="black" stroke-width="4"/>
<path d="M509.45 165L511.95 166.5L514.95 171L516.95 174L518.45 178L519.95 182M509.45 165L507.45 164H504.45L501.45 165L498.45 167L496.95 169.5L496.45 171L496 173.057V176L496.45 179L497.95 185.5L499.45 192L501 197.557L504.45 202L506.95 204L509.95 205L512.95 205.5H515.45L517.45 204.5L518.45 203L519.45 200.5L519.95 198.5L520.45 196L520.95 192V189L520.45 185.5L519.95 182M509.45 165L506.45 167L504.95 168L503.95 169.5L502.95 171.5V174.5L503.95 177L504.95 179.5L506.95 183.5L508.45 185L509.95 186L511.45 186.5H513.45L515.45 186L517.645 184.75L519.95 182" stroke="black" stroke-width="4"/>
<path d="M476.528 140.925L478.555 143.021L480.288 148.144L481.443 151.56L481.857 155.812L482.271 160.064M476.528 140.925L474.855 139.442L471.957 138.665L468.801 138.855L465.385 140.01L463.289 142.037L462.418 143.356L461.451 145.227L460.69 148.069L460.348 151.084L460.114 157.75L459.881 164.417L459.94 170.186L462.122 175.37L464.019 177.949L466.658 179.692L469.427 180.951L471.842 181.598L474.032 181.15L475.386 179.96L476.999 177.804L478 176.001L479.13 173.716L480.648 169.982L481.425 167.084L481.848 163.574L482.271 160.064M476.528 140.925L473.113 142.081L471.405 142.658L470.051 143.848L468.567 145.522L467.791 148.419L468.11 151.093L468.429 153.767L469.325 158.148L470.386 159.985L471.576 161.339L472.896 162.21L474.827 162.728L476.889 162.763L479.333 162.124L482.271 160.064" stroke="black" stroke-width="4"/>
<path d="M427.45 148L429.95 149.5L432.95 154L434.95 157L436.45 161L437.95 165M427.45 148L425.45 147H422.45L419.45 148L416.45 150L414.95 152.5L414.45 154L414 156.057V159L414.45 162L415.95 168.5L417.45 175L419 180.557L422.45 185L424.95 187L427.95 188L430.95 188.5H433.45L435.45 187.5L436.45 186L437.45 183.5L437.95 181.5L438.45 179L438.95 175V172L438.45 168.5L437.95 165M427.45 148L424.45 150L422.95 151L421.95 152.5L420.95 154.5V157.5L421.95 160L422.95 162.5L424.95 166.5L426.45 168L427.95 169L429.45 169.5H431.45L433.45 169L435.645 167.75L437.95 165" stroke="black" stroke-width="4"/>
<path d="M452.49 202.54L454.327 204.804L455.607 210.059L456.46 213.562L456.502 217.834L456.543 222.106M452.49 202.54L450.953 200.916L448.134 199.89L444.973 199.804L441.47 200.657L439.205 202.493L438.222 203.732L437.096 205.511L436.09 208.276L435.486 211.249L434.673 217.87L433.859 224.491L433.415 230.244L435.137 235.598L436.802 238.333L439.28 240.299L441.928 241.794L444.277 242.649L446.498 242.394L447.951 241.326L449.746 239.319L450.9 237.611L452.224 235.432L454.062 231.845L455.089 229.026L455.816 225.566L456.543 222.106M452.49 202.54L448.987 203.393L447.236 203.82L445.783 204.887L444.159 206.425L443.133 209.244L443.218 211.935L443.303 214.626L443.814 219.069L444.71 220.992L445.778 222.444L447.016 223.427L448.896 224.111L450.946 224.325L453.437 223.902L456.543 222.106" stroke="black" stroke-width="4"/>
<path d="M515.45 220L517.95 221.5L520.95 226L522.95 229L524.45 233L525.95 237M515.45 220L513.45 219H510.45L507.45 220L504.45 222L502.95 224.5L502.45 226L502 228.057V231L502.45 234L503.95 240.5L505.45 247L507 252.557L510.45 257L512.95 259L515.95 260L518.95 260.5H521.45L523.45 259.5L524.45 258L525.45 255.5L525.95 253.5L526.45 251L526.95 247V244L526.45 240.5L525.95 237M515.45 220L512.45 222L510.95 223L509.95 224.5L508.95 226.5V229.5L509.95 232L510.95 234.5L512.95 238.5L514.45 240L515.95 241L517.45 241.5H519.45L521.45 241L523.645 239.75L525.95 237" stroke="black" stroke-width="4"/>
<path d="M487.45 246L489.95 247.5L492.95 252L494.95 255L496.45 259L497.95 263M487.45 246L485.45 245H482.45L479.45 246L476.45 248L474.95 250.5L474.45 252L474 254.057V257L474.45 260L475.95 266.5L477.45 273L479 278.557L482.45 283L484.95 285L487.95 286L490.95 286.5H493.45L495.45 285.5L496.45 284L497.45 281.5L497.95 279.5L498.45 277L498.95 273V270L498.45 266.5L497.95 263M487.45 246L484.45 248L482.95 249L481.95 250.5L480.95 252.5V255.5L481.95 258L482.95 260.5L484.95 264.5L486.45 266L487.95 267L489.45 267.5H491.45L493.45 267L495.645 265.75L497.95 263" stroke="black" stroke-width="4"/>
<path d="M519.194 305.134L520.609 307.683L520.957 313.08L521.189 316.678L520.488 320.892L519.787 325.106M519.194 305.134L517.962 303.267L515.364 301.767L512.266 301.134L508.668 301.366L506.119 302.781L504.936 303.83L503.518 305.387L502.046 307.935L500.936 310.758L498.985 317.137L497.034 323.516L495.598 329.104L496.364 334.676L497.529 337.659L499.627 340.025L501.975 341.958L504.14 343.208L506.372 343.342L507.988 342.543L510.104 340.877L511.537 339.395L513.22 337.48L515.653 334.266L517.153 331.668L518.47 328.387L519.787 325.106M519.194 305.134L515.596 305.366L513.797 305.482L512.181 306.281L510.315 307.513L508.815 310.111L508.431 312.776L508.047 315.441L507.779 319.905L508.328 321.954L509.127 323.57L510.176 324.753L511.908 325.753L513.89 326.32L516.417 326.335L519.787 325.106" stroke="black" stroke-width="4"/>
<path d="M475.45 354L477.95 355.5L480.95 360L482.95 363L484.45 367L485.95 371M475.45 354L473.45 353H470.45L467.45 354L464.45 356L462.95 358.5L462.45 360L462 362.057V365L462.45 368L463.95 374.5L465.45 381L467 386.557L470.45 391L472.95 393L475.95 394L478.95 394.5H481.45L483.45 393.5L484.45 392L485.45 389.5L485.95 387.5L486.45 385L486.95 381V378L486.45 374.5L485.95 371M475.45 354L472.45 356L470.95 357L469.95 358.5L468.95 360.5V363.5L469.95 366L470.95 368.5L472.95 372.5L474.45 374L475.95 375L477.45 375.5H479.45L481.45 375L483.645 373.75L485.95 371" stroke="black" stroke-width="4"/>
<path d="M475.45 354L477.95 355.5L480.95 360L482.95 363L484.45 367L485.95 371M475.45 354L473.45 353H470.45L467.45 354L464.45 356L462.95 358.5L462.45 360L462 362.057V365L462.45 368L463.95 374.5L465.45 381L467 386.557L470.45 391L472.95 393L475.95 394L478.95 394.5H481.45L483.45 393.5L484.45 392L485.45 389.5L485.95 387.5L486.45 385L486.95 381V378L486.45 374.5L485.95 371M475.45 354L472.45 356L470.95 357L469.95 358.5L468.95 360.5V363.5L469.95 366L470.95 368.5L472.95 372.5L474.45 374L475.95 375L477.45 375.5H479.45L481.45 375L483.645 373.75L485.95 371" stroke="black" stroke-width="4"/>
<path d="M469.45 312L471.95 313.5L474.95 318L476.95 321L478.45 325L479.95 329M469.45 312L467.45 311H464.45L461.45 312L458.45 314L456.95 316.5L456.45 318L456 320.057V323L456.45 326L457.95 332.5L459.45 339L461 344.557L464.45 349L466.95 351L469.95 352L472.95 352.5H475.45L477.45 351.5L478.45 350L479.45 347.5L479.95 345.5L480.45 343L480.95 339V336L480.45 332.5L479.95 329M469.45 312L466.45 314L464.95 315L463.95 316.5L462.95 318.5V321.5L463.95 324L464.95 326.5L466.95 330.5L468.45 332L469.95 333L471.45 333.5H473.45L475.45 333L477.645 331.75L479.95 329" stroke="black" stroke-width="4"/>
<path d="M452.45 262L454.95 263.5L457.95 268L459.95 271L461.45 275L462.95 279M452.45 262L450.45 261H447.45L444.45 262L441.45 264L439.95 266.5L439.45 268L439 270.057V273L439.45 276L440.95 282.5L442.45 289L444 294.557L447.45 299L449.95 301L452.95 302L455.95 302.5H458.45L460.45 301.5L461.45 300L462.45 297.5L462.95 295.5L463.45 293L463.95 289V286L463.45 282.5L462.95 279M452.45 262L449.45 264L447.95 265L446.95 266.5L445.95 268.5V271.5L446.95 274L447.95 276.5L449.95 280.5L451.45 282L452.95 283L454.45 283.5H456.45L458.45 283L460.645 281.75L462.95 279" stroke="black" stroke-width="4"/>
<path d="M452.45 262L454.95 263.5L457.95 268L459.95 271L461.45 275L462.95 279M452.45 262L450.45 261H447.45L444.45 262L441.45 264L439.95 266.5L439.45 268L439 270.057V273L439.45 276L440.95 282.5L442.45 289L444 294.557L447.45 299L449.95 301L452.95 302L455.95 302.5H458.45L460.45 301.5L461.45 300L462.45 297.5L462.95 295.5L463.45 293L463.95 289V286L463.45 282.5L462.95 279M452.45 262L449.45 264L447.95 265L446.95 266.5L445.95 268.5V271.5L446.95 274L447.95 276.5L449.95 280.5L451.45 282L452.95 283L454.45 283.5H456.45L458.45 283L460.645 281.75L462.95 279" stroke="black" stroke-width="4"/>
<path d="M522.45 256L524.95 257.5L527.95 262L529.95 265L531.45 269L532.95 273M522.45 256L520.45 255H517.45L514.45 256L511.45 258L509.95 260.5L509.45 262L509 264.057V267L509.45 270L510.95 276.5L512.45 283L514 288.557L517.45 293L519.95 295L522.95 296L525.95 296.5H528.45L530.45 295.5L531.45 294L532.45 291.5L532.95 289.5L533.45 287L533.95 283V280L533.45 276.5L532.95 273M522.45 256L519.45 258L517.95 259L516.95 260.5L515.95 262.5V265.5L516.95 268L517.95 270.5L519.95 274.5L521.45 276L522.95 277L524.45 277.5H526.45L528.45 277L530.645 275.75L532.95 273" stroke="black" stroke-width="4"/>
<path d="M511.146 369.525L512.982 371.789L514.262 377.044L515.115 380.547L515.157 384.819L515.198 389.091M511.146 369.525L509.609 367.901L506.789 366.875L503.628 366.788L500.125 367.642L497.861 369.478L496.878 370.716L495.751 372.496L494.745 375.261L494.142 378.234L493.328 384.855L492.514 391.476L492.07 397.228L493.793 402.583L495.458 405.317L497.935 407.283L500.583 408.779L502.932 409.634L505.154 409.379L506.606 408.311L508.401 406.304L509.555 404.595L510.88 402.417L512.718 398.829L513.744 396.01L514.471 392.55L515.198 389.091M511.146 369.525L507.643 370.378L505.891 370.805L504.438 371.872L502.815 373.409L501.789 376.228L501.873 378.92L501.958 381.611L502.469 386.054L503.366 387.976L504.433 389.429L505.672 390.412L507.551 391.096L509.602 391.31L512.092 390.887L515.198 389.091" stroke="black" stroke-width="4"/>
<path d="M484.45 401L486.95 402.5L489.95 407L491.95 410L493.45 414L494.95 418M484.45 401L482.45 400H479.45L476.45 401L473.45 403L471.95 405.5L471.45 407L471 409.057V412L471.45 415L472.95 421.5L474.45 428L476 433.557L479.45 438L481.95 440L484.95 441L487.95 441.5H490.45L492.45 440.5L493.45 439L494.45 436.5L494.95 434.5L495.45 432L495.95 428V425L495.45 421.5L494.95 418M484.45 401L481.45 403L479.95 404L478.95 405.5L477.95 407.5V410.5L478.95 413L479.95 415.5L481.95 419.5L483.45 421L484.95 422L486.45 422.5H488.45L490.45 422L492.645 420.75L494.95 418" stroke="black" stroke-width="4"/>
<path d="M525.066 439.719L525.017 442.634L522.62 447.482L521.022 450.714L518.308 454.014L515.594 457.313M525.066 439.719L524.932 437.487L523.432 434.889L521.066 432.791L517.834 431.193L514.919 431.144L513.37 431.461L511.364 432.1L508.815 433.571L506.442 435.461L501.563 440.01L496.684 444.559L492.646 448.68L490.523 453.889L490.041 457.054L490.675 460.152L491.742 463L492.992 465.165L494.858 466.398L496.657 466.514L499.322 466.13L501.305 465.563L503.72 464.746L507.434 463.179L510.032 461.679L512.813 459.496L515.594 457.313M525.066 439.719L521.834 438.121L520.218 437.322L518.419 437.206L516.187 437.34L513.589 438.84L511.924 440.956L510.259 443.072L507.795 446.804L507.246 448.853L507.13 450.652L507.447 452.201L508.447 453.933L509.88 455.415L512.06 456.692L515.594 457.313" stroke="black" stroke-width="4"/>
<path d="M486.865 467.469L489.066 469.381L491.239 474.333L492.688 477.635L493.47 481.835L494.253 486.034M486.865 467.469L485.069 466.137L482.114 465.616L478.986 466.08L475.684 467.529L473.773 469.73L473.02 471.121L472.22 473.069L471.709 475.967L471.631 478.999L471.979 485.661L472.328 492.323L472.89 498.065L475.516 503.039L477.63 505.443L480.411 506.949L483.279 507.962L485.741 508.396L487.884 507.758L489.129 506.455L490.548 504.167L491.388 502.284L492.314 499.909L493.501 496.056L494.022 493.102L494.138 489.568L494.253 486.034M486.865 467.469L483.563 468.918L481.912 469.642L480.667 470.946L479.335 472.742L478.814 475.696L479.364 478.332L479.915 480.968L481.19 485.254L482.407 486.992L483.71 488.237L485.101 488.99L487.07 489.337L489.127 489.192L491.506 488.342L494.253 486.034" stroke="black" stroke-width="4"/>
<path d="M418 193.5L423.5 199L426 205.5V213L424.5 218L421 219.5L416.5 221M499.5 226.5L498 227V225.5L498.5 222.5L500.5 217L503.5 212L507 209L512 208.5L519.5 209L525 210C525.8 212.4 525.667 213.667 525.5 214L523 216L518 216.5L514 217M448.5 135.5L442 137.5L437.5 143L436 148.5L439 155.5L442 162L446 167.5H449.5L452 162L455 155.5L456.5 146L455 139.5L452 135.5H448.5ZM471.5 246L467.5 250.5L466 253.5L462 255.5L457.5 256.5H455L452.5 255L450.5 253.5L450 251V247.5L451.5 245L454.5 242L457 239L459.5 238L462 237.348H465L468.5 238L471 240.5L472.5 242V244L471.5 246Z" stroke="black" stroke-width="4"/>
<path d="M477 293.5L481 291H484H486.5L490 291.5L492.5 293.5L494.5 296.5L495.5 300.5L495 304.5L494 308.5L492.5 311L490.5 314.5L486.5 315.5H482L478 313.5L474.5 310L472 307L471 305L471.5 301.5L473 299L475 295.5L477 293.5Z" stroke="black" stroke-width="4"/>
<path d="M503.5 347L506.5 345H507L509 344L512 343H516L518.5 344.5L520 349V354L518 358L514.5 360L511 362L503.5 363L498 362.5L494 360L493 357.5L492.5 353.5L495 350L499.5 348L503.5 347Z" stroke="black" stroke-width="4"/>
<path d="M603.5 472.5L605.5 467.5L607 463.5L607.5 459.5L607 456.5L606 454.5L602.5 452L598 450L592.5 449.5L587 450L581.25 452.25L577 454L573 456L568.5 459.5L565.5 463L563.5 467L563 470.5L563.5 473.5L565.5 478L568.5 481L571.5 482.5L576 484L580.5 485L584.5 485.5L589 486.5L593 487.5L597.5 488.5L602 490L606 492L610 495L612.5 498.5L614.5 501L615 504.5V507L614 511L612.5 514.5L610 519L606 522.5L600.5 526.5L594.5 529L588.5 529.5L582 529L576 528L573.5 526.5L570 524L567.5 521.5L565.5 517.5V513.5V511L566.5 507.5L567.5 506.5L568.5 505.5M632.5 468.5V473.5V479.5L633 484L633.5 487L635 493L637 498.5L638.5 503L640 506.5L641 508.5L642 509.5L645 505L646.5 503L648 501L650.5 497L651.5 495L653.5 490L654 487V482.5L653.5 478L652.5 474L651.5 469.5L651 466.5L650.5 464L652 468.5L653 473.5L654.5 479.5L655.5 486L656.5 492L657 494.5L658 496.5L659 497.5L660 498.5L661.5 499H662.712L664 498.5L666 497L668 495.5L670 493.5L672 492L674.5 490M695 452.5L690.5 453.5L686 455.5L683 459L681.5 461.5L679.5 465L678 469.5L677.5 471.5L676.5 474.5L676 477.5L676.5 480.5L677.5 484L679 487L681.5 489L684 490L687.5 490.5L689.5 490L690.5 489L692 487L693.5 485L695 481.5L697.5 475.5L698.5 472V468L697.5 464L696.5 459L695 454.5V453L699.5 468L700.5 476.5V483.5L702 492L703 508L703.5 514L704 520.5V523L703.5 525.5L702.5 528L701 530L698.5 532.5L695 534.5L692.5 535L689 535.5L687 534.5L686 533L685.5 531V527.5L686.5 523.5L687.5 519.5L689.5 514.5L692 509.5L695 504.5L697.5 500.5L701 495.5L705.5 491.5L709.5 487.5L714.5 482L718 477.5L719.5 473.5V468V461.5L719 455L718.5 450L718 446V444L719.5 453L720 457L720.5 463.5L721 467.5L721.5 473.5V477L723 479.5L725 481L727.5 480.5L729.5 478.5L731.5 476.5L733 475L735 473L737.5 470.5L740 468L742.5 465.5L744 462.5" stroke="black" stroke-width="4"/>
<path d="M740.5 434.5V438.5V443V445.5V450.5V454.5L741 457.5L742.5 461L744 464L746 468L748 470.5L750 471.5H752L754.5 470.5L757 469L758 467L759 465.5L762 461.5L763.5 456.5L764 451.5L763.5 445.5L763 441L762.5 436.5V432.5V429.5L763.5 439.5L764.5 447.5L765 456L766.5 467L768.5 478L769 483L770 489V494.5V500L769.5 504L768.5 507L767.5 509.5L766.5 511L763 512.5L758 513.5L755 514L751.5 513.5L751 510V505.5V501.5L752 498.5L753 496.5L755 492.5L757.5 487.5L760 483L763 479.795L767 475L771.5 470.5L774.5 466.5L777 463.5L779.5 460L781.5 456L783 453L783.5 451L784.5 447M715.5 419L712.5 421.5L711 425V427L711.5 428.5L712.5 429.5L714.5 430H715.5H717.5H719.5L721.5 429L723.5 427L724 425L723.5 423.5V421.5L721.5 420L719.5 419.5H717.5L715.5 419Z" stroke="black" stroke-width="4"/>
</svg>
