<!--?xml version="1.0" encoding="utf-8"?-->
<!-- Generator: Adobe Illustrator 22.1.0, SVG Export Plug-In . SVG Version: 6.00 Build 0)  -->
<svg version="1.1" id="_x34_" xmlns="http://www.w3.org/2000/svg" xmlns:xlink="http://www.w3.org/1999/xlink" x="0px" y="0px" viewBox="0 0 800 794.2" style="enable-background:new 0 0 800 794.2;" xml:space="preserve">
<style type="text/css">
	.st0{fill:#F2F2F2;}
</style>
<g>
	<path class="st0" d="M780,326.4c0-87.1-62.3-159.7-144.8-175.6C587.6,72.3,501.3,19.9,402.8,19.9c-74.2,0-141.5,29.8-190.5,78
		c-3.5-0.2-7-0.3-10.6-0.3c-98.8,0-178.9,80.1-178.9,178.9c0,29,6.9,56.4,19.2,80.7c-14.1,32.2-22,67.8-22,105.2
		C20,607,137.4,724.4,282.1,724.4c3.5,0,7.1-0.1,10.6-0.2c38.8,31.4,88.2,50.2,142,50.2c90,0,167.7-52.6,204.1-128.7
		c72.3-36.2,121.9-110.9,121.9-197.3c0-12.1-1-24-2.9-35.5C771.9,387.2,780,357.7,780,326.4z"></path>
	<polygon class="st0" points="669.4,560.6 698.2,690.5 563.5,666.4 	"></polygon>
</g>
</svg>
