<svg width="1024" height="1024" viewBox="0 0 1024 1024" fill="none" xmlns="http://www.w3.org/2000/svg">
<rect width="1024" height="1024" fill="#111111"/>
<rect x="89" y="475" width="846" height="437" rx="20" fill="white"/>
<path d="M149.054 581.565C149.054 580.11 150.233 578.931 151.688 578.931H442.717C444.171 578.931 445.35 580.11 445.35 581.565C445.35 583.019 444.171 584.199 442.717 584.199H151.688C150.233 584.199 149.054 583.019 149.054 581.565Z" fill="black" fill-opacity="0.5"/>
<circle cx="132.374" cy="581.565" r="7.02332" fill="black" fill-opacity="0.5"/>
<path d="M149.054 665.955C149.054 664.5 150.233 663.321 151.688 663.321H442.717C444.171 663.321 445.35 664.5 445.35 665.955C445.35 667.41 444.171 668.589 442.717 668.589H151.688C150.233 668.589 149.054 667.41 149.054 665.955Z" fill="black" fill-opacity="0.5"/>
<circle cx="132.374" cy="665.955" r="7.02332" fill="black" fill-opacity="0.5"/>
<path d="M149.054 833.891C149.054 832.436 150.233 831.257 151.688 831.257H442.717C444.171 831.257 445.35 832.436 445.35 833.891C445.35 835.346 444.171 836.525 442.717 836.525H151.688C150.233 836.525 149.054 835.346 149.054 833.891Z" fill="black" fill-opacity="0.5"/>
<circle cx="132.374" cy="833.891" r="7.02332" fill="black" fill-opacity="0.5"/>
<path d="M149.054 750.078C149.054 748.623 150.233 747.444 151.688 747.444H442.717C444.171 747.444 445.35 748.623 445.35 750.078C445.35 751.532 444.171 752.711 442.717 752.711H151.688C150.233 752.711 149.054 751.532 149.054 750.078Z" fill="black" fill-opacity="0.5"/>
<circle cx="132.374" cy="750.078" r="7.02332" fill="black" fill-opacity="0.5"/>
<circle cx="735.229" cy="694.229" r="161.229" fill="#E62488"/>
<path d="M735.229 533C704.846 533 675.081 541.585 649.365 557.766C623.65 573.946 603.029 597.064 589.88 624.454C576.732 651.844 571.59 682.392 575.048 712.578C578.505 742.763 590.422 771.357 609.424 795.064L735.229 694.229L735.229 533Z" fill="#D9D9D9"/>
<line x1="512" y1="477" x2="512" y2="718" stroke="black" stroke-width="50" stroke-linecap="round"/>
<path d="M529.678 84.3224C519.915 74.5593 504.085 74.5593 494.322 84.3224L335.223 243.421C325.46 253.184 325.46 269.014 335.223 278.777C344.986 288.54 360.816 288.54 370.579 278.777L512 137.355L653.421 278.777C663.184 288.54 679.014 288.54 688.777 278.777C698.54 269.014 698.54 253.184 688.777 243.421L529.678 84.3224ZM512 475H537L537 102H512H487L487 475H512Z" fill="white"/>
</svg>
